<?xml version="1.0" encoding="UTF-8" standalone="no"?>
<!DOCTYPE svg PUBLIC "-//W3C//DTD SVG 1.1//EN" "http://www.w3.org/Graphics/SVG/1.1/DTD/svg11.dtd">
<svg width="100%" height="100%" viewBox="0 0 43 50" version="1.1" xmlns="http://www.w3.org/2000/svg" xmlns:xlink="http://www.w3.org/1999/xlink" xml:space="preserve" xmlns:serif="http://www.serif.com/" style="fill-rule:evenodd;clip-rule:evenodd;stroke-linejoin:round;stroke-miterlimit:2;">
    <g transform="matrix(1,0,0,1,-106.5,-307.231)">
        <rect id="shopping_card" x="0" y="0" width="256" height="384" style="fill:none;"/>
        <g id="shopping_card1" serif:id="shopping_card">
            <g id="bag.svg" transform="matrix(0.0959821,0,0,0.0959821,128,331.803)">
                <g transform="matrix(1,0,0,1,-224,-256)">
                    <g transform="matrix(0.962891,0,0,0.962891,8.3125,9.5)">
                        <path d="M160,112C160,76.7 188.7,48 224,48C259.3,48 288,76.7 288,112L288,160L160,160L160,112ZM112,160L48,160C21.5,160 0,181.5 0,208L0,416C0,469 43,512 96,512L352,512C405,512 448,469 448,416L448,208C448,181.5 426.5,160 400,160L336,160L336,112C336,50.1 285.9,0 224,0C162.1,0 112,50.1 112,112L112,160ZM136,208C149.166,208 160,218.834 160,232C160,245.166 149.166,256 136,256C122.834,256 112,245.166 112,232C112,218.834 122.834,208 136,208ZM288,232C288,218.834 298.834,208 312,208C325.166,208 336,218.834 336,232C336,245.166 325.166,256 312,256C298.834,256 288,245.166 288,232Z" style="fill:none;fill-rule:nonzero;stroke:white;stroke-width:10.39px;"/>
                    </g>
                </g>
            </g>
        </g>
    </g>
</svg>
