<?xml version="1.0" encoding="UTF-8" standalone="no"?>
<svg
   width="100%"
   height="100%"
   viewBox="0 0 256 384"
   version="1.1"
   xml:space="preserve"
   style="fill-rule:evenodd;clip-rule:evenodd;stroke-linejoin:round;stroke-miterlimit:2;"
   id="svg10"
   sodipodi:docname="shopping_item_design.svg"
   inkscape:version="1.3.2 (091e20e, 2023-11-25)"
   xmlns:inkscape="http://www.inkscape.org/namespaces/inkscape"
   xmlns:sodipodi="http://sodipodi.sourceforge.net/DTD/sodipodi-0.dtd"
   xmlns="http://www.w3.org/2000/svg"
   xmlns:svg="http://www.w3.org/2000/svg"><sodipodi:namedview
     id="namedview10"
     pagecolor="#ffffff"
     bordercolor="#000000"
     borderopacity="0.25"
     inkscape:showpageshadow="2"
     inkscape:pageopacity="0.0"
     inkscape:pagecheckerboard="0"
     inkscape:deskcolor="#d1d1d1"
     inkscape:zoom="1.583136"
     inkscape:cx="144.33378"
     inkscape:cy="239.39826"
     inkscape:window-width="1680"
     inkscape:window-height="939"
     inkscape:window-x="0"
     inkscape:window-y="25"
     inkscape:window-maximized="0"
     inkscape:current-layer="svg10" /><defs
     id="defs10" /><path
     d="M 85.302041,340.62203 C 72.64892,361.30988 51.774701,373.663 29.474295,373.663 21.093153,373.78078 14.960931,373.78078 14.960931,373.78078 6.6982625,373.78078 0,366.23589 0,356.92774 V 16.853737 C 0,7.5455913 6.6982625,0 14.960931,0 H 241.03907 C 249.30174,0 256,7.5455913 256,16.853737 V 356.92774 c 0,9.30815 -6.69826,16.85304 -14.96093,16.85304 h -17.03734 c -21.26636,0 -41.10203,-12.06906 -52.76475,-32.09872 C 162.02029,325.80382 146.08489,315.35424 128,315.35424 c -17.6976,0 -33.336812,10.00686 -42.697959,25.26779 z"
     id="path1"
     style="clip-rule:evenodd;fill-rule:evenodd;stroke-width:0.346414;stroke-linejoin:round;stroke-miterlimit:2" /></svg>
